<svg id="Layer_1" data-name="Layer 1" xmlns="http://www.w3.org/2000/svg" viewBox="0 0 130.63 34.86"><defs><style>.cls-1{fill:#34a750;}.cls-2{fill:#e94536;}.cls-3{fill:#547dbf;}.cls-4{fill:#f7bb17;}</style></defs><path class="cls-1" d="M360,158.92a7.18,7.18,0,0,1-3.12,1.08c-1.21-.1-3.33-1.05-4-4.55s1.79-7.41,3.15-7.69,2,.33,2.18,1,.35.78-.07,3.23c-.12,1.38.39,3,.86,3.06s1.69-.58,1.76-2.35-1.09-3.48-.34-4.56,2.38-1,3.23.49.95,2.49,1.17,6a9.49,9.49,0,0,1,.51,2.51,2.17,2.17,0,0,1-2.17,2A3,3,0,0,1,361,158,6.35,6.35,0,0,1,360,158.92Z" transform="translate(-240.69 -129.1)"/><path class="cls-2" d="M333.28,153.79a12.49,12.49,0,0,1-.95-3.81,51.24,51.24,0,0,1,.17-11.07c.52-3.34,1.5-6.85,5.18-7.16,0,0,3.24,0,2.8,3.71s-1.5,7.2-1.47,9,.34,3.88,2.26,4,3.92-.94,5.64-4.73,1.65-7.25,3.56-8,3.16-.21,3.72,2.28.13,5.86-1,9.24-2.72,9.3-9,12.13a7.72,7.72,0,0,1-5.91-.17A9.76,9.76,0,0,1,333.28,153.79Z" transform="translate(-240.69 -129.1)"/><path class="cls-3" d="M329.52,153c-.83-.28-1.47-.21-2.39.87a2.81,2.81,0,0,1-4.11.07,6.91,6.91,0,0,0,4.36-1.5,3.81,3.81,0,0,0,1.21-4.65c-.6-1.66-2.81-2.88-5.94-2.39s-5.06,3.55-5.55,4.88a7.08,7.08,0,0,0,.46,6c1.32,2.33,4.34,3.42,7.38,3.13a6,6,0,0,0,5.28-3.41C330.88,154.47,330.34,153.25,329.52,153Zm-7.57-1.6s-.8-.41.13-1.7,2.51-1.08,2.77-.66.2,1.17-1,2A2.16,2.16,0,0,1,322,151.38Z" transform="translate(-240.69 -129.1)"/><path class="cls-4" d="M296.41,158.13a2,2,0,0,1-2.15-.28c-1.22-.84-1.66-2.49-2-3.6a12.72,12.72,0,0,1-.63-5.09c.29-1.44,1-2.46,2.37-2.46a1.28,1.28,0,0,1,1.3.77,5.1,5.1,0,0,1,3.53-1.83,5.41,5.41,0,0,1,5.17,3.72c2.53-2.79,4.78-3.59,7.3-3.23s3.31,2.13,3.64,4.06-1,5.82-2.52,7.28-3.92,1.32-4.53-.55.9-1.79,1.93-4.4c.28-.71.26-1-.3-1.41a1,1,0,0,0-1.32.5c-.39.78-1.62,4.07-2.6,5.1A3.21,3.21,0,0,1,302,158c-2-.34-1.63-3.36-1.53-4s.44-3.33-.71-3.41-2.41.76-2.36,2.72a13.48,13.48,0,0,0,.38,2.71A2,2,0,0,1,296.41,158.13Z" transform="translate(-240.69 -129.1)"/><path class="cls-1" d="M289.67,155.4c-.21-.18-.59-.35-.68-.5a5.27,5.27,0,0,1-.3-2,10.44,10.44,0,0,1,.92-4c.21-.44-.23-1-.56-1.27a1.52,1.52,0,0,0-1.37-.41c0-.11-.12-.21-.59-.63a4.87,4.87,0,0,0-4.79-.81,6.78,6.78,0,0,0-4.51,3.63,7,7,0,0,0-.5,5,4.56,4.56,0,0,0,4,3.32,4.47,4.47,0,0,0,4-1.32,4.23,4.23,0,0,0,1.82,1.58,2.24,2.24,0,0,0,2.48-.83A2,2,0,0,0,289.67,155.4Zm-4.46-3.53a3.87,3.87,0,0,1-.5,1.76,2.53,2.53,0,0,1-2,.14,1.69,1.69,0,0,1-1.12-2.2,2.51,2.51,0,0,1,2-1.75,2.55,2.55,0,0,1,1.77.32S285.45,150.18,285.21,151.87Z" transform="translate(-240.69 -129.1)"/><path class="cls-1" d="M289,148.69a.83.83,0,1,1-.82-.82A.83.83,0,0,1,289,148.69Z" transform="translate(-240.69 -129.1)"/><path class="cls-2" d="M267.87,146.69s-3.66,2.18-5.76-.69-.63-6.19,2-7.77,7.48-2.34,10.47,3.72c2.8,7.31-.13,14.23-2.11,16.27s-6.75,6.36-15.71,5.67a17.09,17.09,0,0,1-15-10.84,18.55,18.55,0,0,1,.49-14.13,16.14,16.14,0,0,1,14.07-9.82s7.28-.29,6.82,3.43a2.47,2.47,0,0,1-2.44,1.61A10.89,10.89,0,0,0,252,139a10.59,10.59,0,0,0-1.22,11c1.22,2.86,5.93,7.54,13.38,4.28A7.13,7.13,0,0,0,267.87,146.69Z" transform="translate(-240.69 -129.1)"/><path class="cls-4" d="M366.43,153.27s-.09-5.33,1.56-6.65a1.32,1.32,0,0,1,1.76.33c.72,1,1.64,4.94,1,9.36-.37,2.19-.92,3.82-2.07,3.8S366.5,157.94,366.43,153.27Z" transform="translate(-240.69 -129.1)"/><path class="cls-4" d="M368.89,145.32a3,3,0,0,1-2.79-1.25,2.78,2.78,0,0,1,1.39-4.3,2.85,2.85,0,0,1,3.82,2.94A3,3,0,0,1,368.89,145.32Z" transform="translate(-240.69 -129.1)"/></svg>